ffmpeg version 3.4.8-0ubuntu0.2 Copyright (c) 2000-2020 the FFmpeg developers
  built with gcc 7 (Ubuntu 7.5.0-3ubuntu1~18.04)
  configuration: --prefix=/usr --extra-version=0ubuntu0.2 --toolchain=hardened --libdir=/usr/lib/x86_64-linux-gnu --incdir=/usr/include/x86_64-linux-gnu --enable-gpl --disable-stripping --enable-avresample --enable-avisynth --enable-gnutls --enable-ladspa --enable-libass --enable-libbluray --enable-libbs2b --enable-libcaca --enable-libcdio --enable-libflite --enable-libfontconfig --enable-libfreetype --enable-libfribidi --enable-libgme --enable-libgsm --enable-libmp3lame --enable-libmysofa --enable-libopenjpeg --enable-libopenmpt --enable-libopus --enable-libpulse --enable-librubberband --enable-librsvg --enable-libshine --enable-libsnappy --enable-libsoxr --enable-libspeex --enable-libssh --enable-libtheora --enable-libtwolame --enable-libvorbis --enable-libvpx --enable-libwavpack --enable-libwebp --enable-libx265 --enable-libxml2 --enable-libxvid --enable-libzmq --enable-libzvbi --enable-omx --enable-openal --enable-opengl --enable-sdl2 --enable-libdc1394 --enable-libdrm --enable-libiec61883 --enable-chromaprint --enable-frei0r --enable-libopencv --enable-libx264 --enable-shared
  libavutil      55. 78.100 / 55. 78.100
  libavcodec     57.107.100 / 57.107.100
  libavformat    57. 83.100 / 57. 83.100
  libavdevice    57. 10.100 / 57. 10.100
  libavfilter     6.107.100 /  6.107.100
  libavresample   3.  7.  0 /  3.  7.  0
  libswscale      4.  8.100 /  4.  8.100
  libswresample   2.  9.100 /  2.  9.100
  libpostproc    54.  7.100 / 54.  7.100
[rawvideo @ 0x5612a5944a20] Estimating duration from bitrate, this may be inaccurate
Input #0, rawvideo, from '../../SVC-Encoder-20220109T061506Z-001/SVC-Encoder/Dataset/RollerCoaster/6f_2x2/tile_yuv/f3_t3_480x480.yuv':
  Duration: 00:00:10.00, start: 0.000000, bitrate: 82944 kb/s
    Stream #0:0: Video: rawvideo (I420 / 0x30323449), yuv420p, 480x480, 82944 kb/s, 30 tbr, 30 tbn, 30 tbc
Stream mapping:
  Stream #0:0 -> #0:0 (rawvideo (native) -> h264 (libx264))
Press [q] to stop, [?] for help
[libx264 @ 0x5612a5951c60] using cpu capabilities: MMX2 SSE2Fast LZCNT SSSE3 SSE4.2 AVX
[libx264 @ 0x5612a5951c60] profile High, level 3.0
Output #0, rawvideo, to 'RollerCoaster_f3_t3_480x480_x264_QP_24.h264':
  Metadata:
    encoder         : Lavf57.83.100
    Stream #0:0: Video: h264 (libx264), yuv420p, 480x480, q=-1--1, 30 fps, 30 tbn, 30 tbc
    Metadata:
      encoder         : Lavc57.107.100 libx264
    Side data:
      cpb: bitrate max/min/avg: 0/0/0 buffer size: 0 vbv_delay: -1
frame=  121 fps=0.0 q=30.0 PSNR=Y:nan U:nan V:nan *:nan size=     117kB time=00:00:02.60 bitrate= 368.6kbits/s speed=5.15x    frame=  203 fps=202 q=30.0 PSNR=Y:nan U:nan V:nan *:nan size=     233kB time=00:00:05.33 bitrate= 357.4kbits/s speed= 5.3x    frame=  293 fps=191 q=30.0 PSNR=Y:nan U:nan V:nan *:nan size=     256kB time=00:00:08.33 bitrate= 251.7kbits/s speed=5.44x    frame=  300 fps=169 q=30.0 LPSNR=Y:inf U:inf V:inf *:inf size=     420kB time=00:00:09.93 bitrate= 346.0kbits/s speed=5.61x    
video:420kB audio:0kB subtitle:0kB other streams:0kB global headers:0kB muxing overhead: 0.000000%
[libx264 @ 0x5612a5951c60] frame I:2     Avg QP:23.01  size: 17202  PSNR Mean Y:46.53 U:47.42 V:46.92 Avg:46.73 Global:46.69
[libx264 @ 0x5612a5951c60] frame P:76    Avg QP:23.89  size:  3114  PSNR Mean Y:44.97 U:47.24 V:46.38 Avg:45.50 Global:45.47
[libx264 @ 0x5612a5951c60] frame B:222   Avg QP:29.48  size:   714  PSNR Mean Y:43.65 U:46.87 V:46.08 Avg:44.40 Global:44.39
[libx264 @ 0x5612a5951c60] consecutive B-frames:  1.3%  0.0%  0.0% 98.7%
[libx264 @ 0x5612a5951c60] mb I  I16..4: 47.3% 28.4% 24.3%
[libx264 @ 0x5612a5951c60] mb P  I16..4:  3.0%  3.9%  0.2%  P16..4: 26.6% 12.9%  5.2%  0.0%  0.0%    skip:48.1%
[libx264 @ 0x5612a5951c60] mb B  I16..4:  0.1%  0.3%  0.0%  B16..8: 25.2%  4.9%  0.5%  direct: 0.6%  skip:68.3%  L0:45.6% L1:48.6% BI: 5.8%
[libx264 @ 0x5612a5951c60] 8x8 transform intra:50.5% inter:67.2%
[libx264 @ 0x5612a5951c60] coded y,uvDC,uvAC intra: 44.4% 64.1% 20.5% inter: 6.4% 6.8% 0.2%
[libx264 @ 0x5612a5951c60] i16 v,h,dc,p: 44% 31% 13% 12%
[libx264 @ 0x5612a5951c60] i8 v,h,dc,ddl,ddr,vr,hd,vl,hu: 17% 28% 17%  6%  4%  3%  7%  6% 12%
[libx264 @ 0x5612a5951c60] i4 v,h,dc,ddl,ddr,vr,hd,vl,hu: 19% 23% 22%  8%  5%  3%  5%  4% 11%
[libx264 @ 0x5612a5951c60] i8c dc,h,v,p: 41% 26% 14% 19%
[libx264 @ 0x5612a5951c60] Weighted P-Frames: Y:0.0% UV:0.0%
[libx264 @ 0x5612a5951c60] ref P L0: 51.3% 11.2% 24.1% 13.4%
[libx264 @ 0x5612a5951c60] ref B L0: 69.3% 23.4%  7.3%
[libx264 @ 0x5612a5951c60] ref B L1: 80.8% 19.2%
[libx264 @ 0x5612a5951c60] PSNR Mean Y:44.008 U:46.969 V:46.165 Avg:44.695 Global:44.649 kb/s:343.74
